<?xml version="1.0" encoding="utf-8"?>
<!-- Generator: Adobe Illustrator 15.1.0, SVG Export Plug-In . SVG Version: 6.00 Build 0)  -->
<!DOCTYPE svg PUBLIC "-//W3C//DTD SVG 1.1//EN" "http://www.w3.org/Graphics/SVG/1.1/DTD/svg11.dtd">
<svg version="1.1"
	 id="Слой_1" inkscape:output_extension="org.inkscape.output.svg.inkscape" sodipodi:docname="opera.svg" inkscape:version="0.47pre0" xmlns:svg="http://www.w3.org/2000/svg" xmlns:sodipodi="http://sodipodi.sourceforge.net/DTD/sodipodi-0.dtd" xmlns:rdf="http://www.w3.org/1999/02/22-rdf-syntax-ns#" xmlns:dc="http://purl.org/dc/elements/1.1/" xmlns:inkscape="http://www.inkscape.org/namespaces/inkscape" xmlns:cc="http://creativecommons.org/ns#"
	 xmlns="http://www.w3.org/2000/svg" xmlns:xlink="http://www.w3.org/1999/xlink" x="0px" y="0px" width="96px" height="96px"
	 viewBox="0 0 96 96" enable-background="new 0 0 96 96" xml:space="preserve">
<defs>
	
	
		<inkscape:perspective  id="perspective106" inkscape:persp3d-origin="48 : 32 : 1" inkscape:vp_x="0 : 48 : 1" inkscape:vp_y="0 : 1000 : 0" sodipodi:type="inkscape:persp3d" inkscape:vp_z="96 : 48 : 1">
		</inkscape:perspective>
</defs>
<sodipodi:namedview  id="namedview100" inkscape:window-x="378" inkscape:current-layer="Слой_1" inkscape:window-y="147" inkscape:window-maximized="0" inkscape:window-height="483" inkscape:window-width="640" inkscape:pageshadow="2" inkscape:pageopacity="0" pagecolor="#ffffff" inkscape:cx="48" gridtolerance="10" inkscape:cy="48" inkscape:zoom="2.4583333" bordercolor="#666666" objecttolerance="10" showgrid="false" borderopacity="1" guidetolerance="10">
	</sodipodi:namedview>
<linearGradient id="path3_1_" gradientUnits="userSpaceOnUse" x1="39.6001" y1="64.957" x2="39.6001" y2="-16.8774" gradientTransform="matrix(1 0 0 -1 8.3999 72.04)">
	<stop  offset="0" style="stop-color:#FCFCFC"/>
	<stop  offset="0.2426" style="stop-color:#F3F3F3"/>
	<stop  offset="0.6367" style="stop-color:#DBDBDB"/>
	<stop  offset="1" style="stop-color:#BFBFBF"/>
</linearGradient>
<path id="path3" fill="url(#path3_1_)" stroke="#FFFFFF" stroke-width="0.1074" d="M88.598,48.001
	c0,30.313-10.518,40.917-40.598,40.917c-30.077,0-40.598-10.604-40.598-40.917C7.402,17.687,17.923,7.083,48,7.083
	C78.08,7.083,88.598,17.687,88.598,48.001z"/>
<rect id="rect5" x="8.001" y="8.001" fill="none" width="79.999" height="79.999"/>
<path fill="#FFFFFF" d="M158.75,46.5"/>
<g>
	<g>
		<path fill="#2F2F2F" d="M34.568,33.577c0,0.577,0.028,1.27,0.809,1.27c0.664,0,0.836-0.318,0.836-1.27v-2.193h2.915v1.529
			c0,1.759-0.318,2.884-0.952,3.577c-0.635,0.692-1.559,0.953-2.799,0.953c-1.04,0-1.992-0.289-2.655-1.01
			c-0.664-0.721-1.068-1.904-1.068-3.664v-6.894c0-1.759,0.404-2.943,1.068-3.664c0.664-0.723,1.615-1.01,2.655-1.01
			c1.24,0,2.163,0.26,2.799,0.952c0.634,0.693,0.952,1.818,0.952,3.577v1.24h-2.915v-1.903c0-0.953-0.172-1.27-0.836-1.27
			c-0.78,0-0.809,0.693-0.809,1.27V33.577z"/>
		<path fill="#2F2F2F" d="M45.478,21.43h2.915v15.782h-2.915v-1.328c-0.058,0.03-0.172,0.146-0.317,0.29
			c-0.347,0.345-0.751,0.75-1.27,1.039c-0.26,0.145-0.52,0.23-0.778,0.23c-0.78,0-1.328-0.46-1.674-1.067
			c-0.345-0.578-0.52-1.357-0.52-2.021V21.43h2.915v12.493c0,0.606,0.346,0.691,0.693,0.691c0.318,0,0.489-0.172,0.692-0.375
			c0.086-0.087,0.174-0.23,0.259-0.374L45.478,21.43L45.478,21.43z"/>
		<path fill="#2F2F2F" d="M54.083,17.535v3.895h1.988v2.626h-1.988v7.847c0,0.491,0,1.125,0.112,1.646
			c0.115,0.519,0.346,0.951,0.807,0.951c0.232,0,0.521-0.028,0.721-0.058c0.116-0.029,0.232-0.029,0.348-0.058v2.857
			c-0.145,0.028-0.29,0.086-0.433,0.116c-0.289,0.056-0.661,0.085-1.124,0.085c-1.704,0-2.51-0.865-2.913-1.961
			c-0.405-1.096-0.433-2.422-0.433-3.345v-8.078h-1.472V21.43h1.472v-3.895H54.083z"/>
		<path fill="#2F2F2F" d="M64.933,31.557v1.817c-0.088,1.53-0.548,2.598-1.587,3.434c-0.521,0.434-1.242,0.635-2.192,0.635
			c-1.876,0-2.829-1.039-3.292-2.077c-0.258-0.606-0.431-1.299-0.46-2.078v-7.935c0.087-1.529,0.575-2.654,1.615-3.52
			c0.491-0.432,1.212-0.634,2.166-0.634c1.874,0,2.825,1.038,3.288,2.048c0.258,0.605,0.433,1.268,0.462,2.019v4.588h-4.817v3.434
			c0.026,0.605,0.201,1.039,0.461,1.355c0.146,0.144,0.346,0.23,0.606,0.23c0.548,0,0.807-0.346,0.923-0.78
			c0.086-0.229,0.115-0.489,0.115-0.807v-1.731L64.933,31.557L64.933,31.557z M60.115,27.576h2.105v-2.221
			c0-0.605-0.115-1.038-0.405-1.386c-0.144-0.144-0.373-0.23-0.633-0.23c-0.549,0-0.778,0.376-0.924,0.809
			c-0.088,0.231-0.115,0.492-0.144,0.808V27.576z"/>
	</g>
	
		<linearGradient id="path17_1_" gradientUnits="userSpaceOnUse" x1="-614.0605" y1="916.9492" x2="-614.0605" y2="883.0496" gradientTransform="matrix(1 0 0 1 662.2559 -840.3574)">
		<stop  offset="0" style="stop-color:#A81F1A"/>
		<stop  offset="1" style="stop-color:#EF3029"/>
	</linearGradient>
	<path id="path17" fill="url(#path17_1_)" d="M42.538,77.392c-1.841-0.032-4.021-0.083-4.845-0.113
		c-5.526-0.198-9.32-0.411-10.078-0.563c-1.081-0.22-2.288-0.95-2.989-1.812c-1.122-1.379-1.721-3.053-2.01-5.627
		c-0.677-5.986-0.661-12.967,0.039-18.746c0.307-2.532,1.07-4.36,2.353-5.636c0.731-0.727,1.435-1.136,2.372-1.375
		c2.028-0.52,17.907-0.931,27.566-0.718c5.579,0.124,11.607,0.382,13.212,0.564c2.07,0.236,3.524,1.308,4.533,3.343
		c0.758,1.538,1.003,2.733,1.31,6.42c0.245,2.921,0.304,4.74,0.261,8.109c-0.054,4.033-0.31,7.585-0.693,9.577
		c-0.405,2.109-1.365,3.906-2.602,4.88c-0.956,0.752-1.976,1.087-3.575,1.177c-0.478,0.028-1.079,0.066-1.341,0.086
		c-0.925,0.072-5.871,0.271-8.584,0.35C53.432,77.42,46.376,77.46,42.538,77.392L42.538,77.392z"/>
	<g>
		<g>
			
				<linearGradient id="SVGID_1_" gradientUnits="userSpaceOnUse" x1="26.1255" y1="11.7944" x2="26.1255" y2="-12.891" gradientTransform="matrix(1 0 0 -1 8.3999 72.04)">
				<stop  offset="0" style="stop-color:#FFFFFF"/>
				<stop  offset="1" style="stop-color:#B3B3B3"/>
			</linearGradient>
			<path fill="url(#SVGID_1_)" d="M30.024,52.871v-3.203h9.001v3.203h-2.942v18.001h-3.116V52.871H30.024z"/>
			
				<linearGradient id="SVGID_2_" gradientUnits="userSpaceOnUse" x1="34.9443" y1="11.7935" x2="34.9443" y2="-12.8924" gradientTransform="matrix(1 0 0 -1 8.3999 72.04)">
				<stop  offset="0" style="stop-color:#FFFFFF"/>
				<stop  offset="1" style="stop-color:#B3B3B3"/>
			</linearGradient>
			<path fill="url(#SVGID_2_)" d="M44.167,55.091h2.914v15.781h-2.914v-1.327c-0.058,0.028-0.174,0.145-0.317,0.289
				c-0.346,0.347-0.751,0.75-1.27,1.038c-0.26,0.146-0.52,0.23-0.778,0.23c-0.779,0-1.327-0.461-1.673-1.066
				c-0.346-0.576-0.519-1.357-0.519-2.02V55.091h2.913v12.493c0,0.606,0.346,0.692,0.693,0.692c0.318,0,0.49-0.174,0.691-0.376
				c0.087-0.086,0.174-0.229,0.26-0.376L44.167,55.091L44.167,55.091z"/>
			
				<linearGradient id="SVGID_3_" gradientUnits="userSpaceOnUse" x1="44.7285" y1="11.7944" x2="44.7285" y2="-12.8913" gradientTransform="matrix(1 0 0 -1 8.3999 72.04)">
				<stop  offset="0" style="stop-color:#FFFFFF"/>
				<stop  offset="1" style="stop-color:#B3B3B3"/>
			</linearGradient>
			<path fill="url(#SVGID_3_)" d="M49.394,49.668h2.913v6.463c0.491-0.462,0.925-0.808,1.501-1.067
				c0.259-0.146,0.548-0.205,0.807-0.205c0.809,0,1.356,0.463,1.732,1.04c0.346,0.606,0.52,1.385,0.52,2.048v10.07
				c0,0.661-0.173,1.441-0.52,2.02c-0.376,0.605-0.924,1.066-1.732,1.066c-0.548,0-1.124-0.316-1.558-0.633
				c-0.259-0.204-0.491-0.403-0.75-0.636v1.038h-2.916V49.668H49.394z M52.307,67.41c0,0.548,0.434,0.952,0.865,0.952
				c0.435,0,0.781-0.404,0.781-0.952v-8.855c0-0.549-0.346-0.953-0.781-0.953c-0.432,0-0.865,0.49-0.865,0.953V67.41z"/>
			
				<linearGradient id="SVGID_4_" gradientUnits="userSpaceOnUse" x1="54.1973" y1="11.7949" x2="54.1973" y2="-12.8929" gradientTransform="matrix(1 0 0 -1 8.3999 72.04)">
				<stop  offset="0" style="stop-color:#FFFFFF"/>
				<stop  offset="1" style="stop-color:#B3B3B3"/>
			</linearGradient>
			<path fill="url(#SVGID_4_)" d="M66.362,65.218v1.818c-0.085,1.528-0.546,2.596-1.585,3.434c-0.521,0.432-1.242,0.633-2.194,0.633
				c-1.874,0-2.827-1.036-3.288-2.075c-0.26-0.607-0.433-1.299-0.462-2.077v-7.933c0.087-1.53,0.577-2.656,1.613-3.522
				c0.492-0.432,1.214-0.636,2.167-0.636c1.874,0,2.827,1.04,3.287,2.049c0.261,0.607,0.432,1.269,0.462,2.02v4.589h-4.817v3.434
				c0.028,0.606,0.203,1.038,0.463,1.355c0.144,0.146,0.347,0.23,0.606,0.23c0.547,0,0.805-0.345,0.923-0.779
				c0.086-0.23,0.116-0.489,0.116-0.807v-1.731L66.362,65.218L66.362,65.218z M61.545,61.235h2.108v-2.218
				c0-0.608-0.116-1.04-0.407-1.388c-0.145-0.144-0.373-0.231-0.632-0.231c-0.549,0-0.78,0.378-0.925,0.809
				c-0.085,0.232-0.115,0.49-0.145,0.808V61.235z"/>
		</g>
	</g>
</g>
</svg>
